# xmcd
#
# Track frame offsets: 
#        150
#        25819
#        45636
#        67284
#        95816
#        115133
#        138349
#        157559
#        185650
#        203112
#        225530
#        241505
#        270909
#        304596
#
# Disc length: 4394 seconds
#
# Revision: 4
# Processed by: cddbd v1.5.2PL0 Copyright (c) Steve Scherf et al.
# Submitted via: ExactAudioCopy v1.1
#
DISCID=b111280e
DTITLE=native - intentions
DYEAR=2005
DGENRE=Jazz
TTITLE0=Diva
TTITLE1=CIMENT SONG
TTITLE2=a wish for you
TTITLE3=great intention
TTITLE4=All the people
TTITLE5=Jazz Rock
TTITLE6=More Than I Can Say
TTITLE7=Un Mot Pour Exprimer
TTITLE8=the south atmosphere
TTITLE9=MAX 80
TTITLE10=Whispery Voice
TTITLE11=Song of a way
TTITLE12=Parma
TTITLE13=zoo
EXTD=Jimmy Smith org - Kenny Burrell g - Donald Bailey dr;
EXTT0=
EXTT1=
EXTT2=
EXTT3=
EXTT4=
EXTT5=
EXTT6=
EXTT7=
EXTT8=
EXTT9=
EXTT10=
EXTT11=
EXTT12=
EXTT13=
PLAYORDER=
